<svg width="186" height="98" viewBox="0 0 186 98" fill="none" xmlns="http://www.w3.org/2000/svg">
<path d="M103.806 0C108.204 0.0251357 112.602 0.0268565 117 0.00515814C116.409 0.938001 115.672 1.96333 115.047 2.89794C113.417 5.35484 111.773 7.80224 110.114 10.24L98.3406 27.6929C99.6427 29.5135 100.961 31.5193 102.233 33.3808L108.656 42.7455L114.209 50.806C114.902 51.8149 115.646 52.8482 116.315 53.8656L116.306 53.9336C116.147 54.031 112.718 53.9796 112.199 53.9806L103.292 53.9895C102.489 52.7043 101.61 51.503 100.753 50.2558L96.6064 44.2042L85.2969 27.7312C86.2084 26.3327 87.2226 24.9338 88.1521 23.5296L103.806 0ZM88.6631 27.6939C90.4117 30.0763 92.1656 32.8174 93.8462 35.2798L104.752 51.1909C105.368 51.1906 110.998 51.2095 111.098 51.1582C108.002 46.5725 104.868 42.0128 101.696 37.4796C99.5001 34.2955 97.2243 30.8526 94.958 27.7393L106.219 11.0033C107.977 8.3918 109.921 5.35432 111.755 2.82479C109.608 2.8082 107.492 2.85146 105.344 2.77952L94.4096 19.1079L90.4653 25.0245C89.9102 25.856 89.1772 26.8719 88.6631 27.6939Z" fill="#171717"/>
<path d="M69.0143 12.2959L80.5278 12.3024L80.5264 32.2402L80.5279 39.116C80.5287 40.4012 80.5062 41.7706 80.5472 43.0454L92.6415 43.0493C93.1453 43.8918 93.6532 44.8915 94.1252 45.7609L96.1846 49.5002C96.9374 50.8749 97.9711 52.5552 98.6418 53.9215C98.1268 54.0211 96.2963 53.9752 95.6892 53.973L90.2244 53.9721C83.2059 53.9726 76.0041 54.0536 69 53.9398L69.0143 12.2959ZM71.7887 51.1953L88.2173 51.1941L92.2443 51.1936C92.5042 51.1938 93.7933 51.2131 93.9833 51.1704L94.0004 51.1529L91.0559 45.8384C89.3426 45.7932 87.5276 45.8174 85.8087 45.817L77.7825 45.824L77.7811 27.5407C77.7806 23.4229 77.6914 19.2568 77.7652 15.1486C76.0704 15.0881 74.3415 15.1626 72.643 15.1127C72.3558 15.1043 72.0684 15.1031 71.7811 15.109C71.7527 17.5594 71.7454 20.0099 71.7591 22.4604L71.7551 34.9271L71.7516 44.931C71.7513 46.9923 71.7238 49.1416 71.7887 51.1953Z" fill="#171717"/>
<path d="M69.0133 0.00905891L76.0897 0.0151808C77.5308 0.0122805 79.0898 -0.0202653 80.523 0.0199357C80.5082 2.10422 80.5089 4.18849 80.5251 6.27277C79.5474 6.71531 78.2638 7.19724 77.2399 7.62479C75.3528 8.36638 73.475 9.13141 71.607 9.91971C70.9315 10.1971 69.6485 10.7757 69.0117 10.9641L69.0133 0.00905891ZM71.7793 7.30536L76.0967 5.52676C76.62 5.31278 77.2264 5.04604 77.7496 4.85341C77.7634 4.16658 77.767 3.47973 77.7603 2.79284C75.8444 2.73363 73.7233 2.78124 71.7846 2.78108L71.7793 7.30536Z" fill="#171717"/>
<path d="M8.12 67H36.36V97H29.6V69.92L32.64 73H11.88L14.76 70.76C14.9733 72.7067 15.12 74.5733 15.2 76.36C15.3067 78.1467 15.36 79.8267 15.36 81.4C15.36 85.1867 15.0267 88.2667 14.36 90.64C13.6933 93.0133 12.6533 94.76 11.24 95.88C9.82667 97 7.97333 97.56 5.68 97.56C4.77333 97.56 3.86667 97.4533 2.96 97.24C2.05333 97.0533 1.22667 96.7733 0.48 96.4V90.72C1.62667 91.1733 2.69333 91.4 3.68 91.4C5.54667 91.4 6.89333 90.5467 7.72 88.84C8.54667 87.1067 8.96 84.2933 8.96 80.4C8.96 78.64 8.89333 76.64 8.76 74.4C8.62667 72.16 8.41333 69.6933 8.12 67ZM42.5331 97V67H49.1731V93.56L47.1331 93.16L66.0931 67H74.9331V97H68.2931V70.08L70.3331 70.48L51.1331 97H42.5331ZM81.0878 97V67H87.8478V91.48L85.9278 90.12L104.488 67H111.728L87.2078 97H81.0878ZM95.4078 82.32L100.288 77.96L112.168 97H104.408L95.4078 82.32ZM129.276 97.6C125.783 97.6 122.716 96.9467 120.076 95.64C117.463 94.3333 115.423 92.52 113.956 90.2C112.49 87.8533 111.756 85.12 111.756 82C111.756 78.88 112.49 76.16 113.956 73.84C115.423 71.4933 117.463 69.6667 120.076 68.36C122.716 67.0533 125.783 66.4 129.276 66.4C132.77 66.4 135.823 67.0533 138.436 68.36C141.076 69.6667 143.13 71.4933 144.596 73.84C146.063 76.16 146.796 78.88 146.796 82C146.796 85.12 146.063 87.8533 144.596 90.2C143.13 92.52 141.076 94.3333 138.436 95.64C135.823 96.9467 132.77 97.6 129.276 97.6ZM129.276 91.56C131.463 91.56 133.343 91.1733 134.916 90.4C136.516 89.6267 137.743 88.52 138.596 87.08C139.476 85.64 139.916 83.9467 139.916 82C139.916 80.0533 139.476 78.36 138.596 76.92C137.743 75.48 136.516 74.3733 134.916 73.6C133.343 72.8267 131.463 72.44 129.276 72.44C127.116 72.44 125.236 72.8267 123.636 73.6C122.036 74.3733 120.796 75.48 119.916 76.92C119.063 78.36 118.636 80.0533 118.636 82C118.636 83.9467 119.063 85.64 119.916 87.08C120.796 88.52 122.036 89.6267 123.636 90.4C125.236 91.1733 127.116 91.56 129.276 91.56ZM183.958 84.8C183.665 87.3333 182.772 89.5733 181.278 91.52C179.812 93.44 177.865 94.9333 175.438 96C173.038 97.0667 170.292 97.6 167.198 97.6C163.785 97.6 160.785 96.9467 158.198 95.64C155.638 94.3333 153.638 92.52 152.198 90.2C150.758 87.8533 150.038 85.12 150.038 82C150.038 78.88 150.758 76.16 152.198 73.84C153.638 71.4933 155.638 69.6667 158.198 68.36C160.785 67.0533 163.785 66.4 167.198 66.4C170.292 66.4 173.038 66.9333 175.438 68C177.865 69.0667 179.812 70.56 181.278 72.48C182.772 74.4 183.665 76.64 183.958 79.2H177.118C176.852 77.7867 176.278 76.5733 175.398 75.56C174.518 74.52 173.385 73.72 171.998 73.16C170.612 72.6 168.998 72.32 167.158 72.32C165.052 72.32 163.225 72.72 161.678 73.52C160.158 74.2933 158.985 75.4133 158.158 76.88C157.332 78.32 156.918 80.0267 156.918 82C156.918 83.9733 157.332 85.6933 158.158 87.16C158.985 88.6 160.158 89.72 161.678 90.52C163.225 91.2933 165.052 91.68 167.158 91.68C168.998 91.68 170.612 91.4133 171.998 90.88C173.385 90.32 174.518 89.5333 175.398 88.52C176.278 87.48 176.852 86.24 177.118 84.8H183.958Z" fill="#171717"/>
</svg>
