<svg width="90" height="101" viewBox="0 0 90 101" fill="none" xmlns="http://www.w3.org/2000/svg">
<path d="M65.2603 0C73.5069 0.0470132 81.7535 0.0502316 90 0.00964762C88.8918 1.75441 87.51 3.67215 86.3385 5.42023C83.2821 10.0155 80.1988 14.5931 77.0889 19.1526L55.0136 51.796C57.4551 55.2011 59.926 58.9528 62.3121 62.4345L74.355 79.95L84.7675 95.026C86.0666 96.9131 87.4609 98.8456 88.7157 100.749L88.6982 100.876C88.4009 101.058 81.9712 100.962 80.9978 100.964L64.2982 100.98C62.7914 98.5765 61.1445 96.3297 59.5373 93.9969L51.7619 82.6782L30.5566 51.8676C32.2658 49.2519 34.1674 46.6354 35.9102 44.0091L65.2603 0ZM36.8684 51.7978C40.147 56.2538 43.4355 61.3807 46.5866 65.9863L67.0354 95.7459C68.1895 95.7453 78.7471 95.7807 78.9345 95.6847C73.1295 87.1079 67.2526 78.5796 61.3045 70.1007C57.1877 64.1452 52.9205 57.7058 48.6712 51.8828L69.7852 20.5802C73.0813 15.6958 76.7276 10.0146 80.1663 5.28341C76.1405 5.25237 72.1721 5.33328 68.1443 5.19872L47.643 35.7389L40.2475 46.8051C39.2066 48.3603 37.8323 50.2604 36.8684 51.7978Z" fill="#171717"/>
<path d="M0.0267491 22.9971L21.6146 23.0093L21.612 60.3002L21.6149 73.1606C21.6164 75.5644 21.5741 78.1257 21.651 80.51L44.3279 80.5172C45.2725 82.0931 46.2248 83.9629 47.1097 85.5891L50.9711 92.5829C52.3827 95.1541 54.3207 98.2969 55.5783 100.852C54.6127 101.039 51.1806 100.953 50.0422 100.949L39.7958 100.947C26.6361 100.948 13.1327 101.099 0 100.887L0.0267491 22.9971ZM5.22885 95.7534L36.0323 95.7512L43.5831 95.7501C44.0704 95.7505 46.4875 95.7867 46.8437 95.7067L46.8758 95.674L41.3547 85.7339C38.1423 85.6493 34.7392 85.6947 31.5162 85.6939L16.4672 85.7071L16.4646 51.5104C16.4637 43.8087 16.2964 36.0166 16.4347 28.3328C13.257 28.2196 10.0153 28.3588 6.83059 28.2656C6.29204 28.2498 5.75317 28.2475 5.2145 28.2586C5.16129 32.8417 5.14754 37.4252 5.17323 42.0085L5.16583 65.3258L5.15933 84.0367C5.15873 87.8923 5.10719 91.9122 5.22885 95.7534Z" fill="#171717"/>
<path d="M0.0254843 0.0179201L13.2937 0.0293703C15.9957 0.0239457 18.9188 -0.0369271 21.606 0.0382638C21.5783 3.93664 21.5797 7.83501 21.61 11.7334C19.7768 12.5611 17.3702 13.4625 15.4503 14.2622C11.912 15.6492 8.39116 17.0801 4.88859 18.5545C3.62207 19.0733 1.21644 20.1555 0.0224609 20.508L0.0254843 0.0179201ZM5.21172 13.6647L13.3067 10.3381C14.288 9.93785 15.425 9.43894 16.4059 9.07866C16.4319 7.79403 16.4386 6.50936 16.426 5.22463C12.8338 5.11388 8.85666 5.20293 5.22169 5.20263L5.21172 13.6647Z" fill="#171717"/>
</svg>
